# xmcd
#
# Track frame offsets:
#	150
#	10191
#	19734
#	29961
#	39238
#	52300
#	61478
#	70279
#	80824
#	90632
#	101511
#	110891
#	123613
#	135561
#	145020
#	155773
#	163796
#	176850
#	186864
#	200813
#	209482
#	218626
#	232063
#	240723
#	250258
#	264246
#
# Disc length: 3680 seconds
#
# Revision: 0
# Processed by: cddbd v1.5.2PL0 Copyright (c) Steve Scherf et al.
# Submitted via: EasyCDDAExtractor 10.0.1.1
#
DISCID=930e5e1a
DTITLE=Dinning Sisters - Dinning Sisters - Back In Country Style (George Barne
DTITLE=s On Guitar)
DYEAR=1900
DGENRE=Classic Country
TTITLE0=Turn Your Radio On
TTITLE1=Thanks For The Buggy Ride
TTITLE2=You'll Be Sorry
TTITLE3=You Are My Sunshine
TTITLE4=Farther Along
TTITLE5=Trouble In Mind
TTITLE6=Gospel Cannonball
TTITLE7=Bury Me Not On The Lone Paririe
TTITLE8=I'm Sorry Now
TTITLE9=I Wonder Where You Are Tonight
TTITLE10=Let's Draw Straws
TTITLE11=I Only Wan't A Buddy Now Not A Sweetheart
TTITLE12=The Last Thing I Want Is Your Pity
TTITLE13=Home On The Range
TTITLE14=Oh! Monah
TTITLE15=I Called But Nobody Answered
TTITLE16=Louisiana Hayride
TTITLE17=Ridin' Down The Canyon
TTITLE18=San Antonio Rose
TTITLE19=Morning On The Farm
TTITLE20=In The Pines
TTITLE21=Sweethearts Or Strangers
TTITLE22=The Trail Of The Lonesome Pine
TTITLE23=When The Bloom Is On The Sage
TTITLE24=No Letter Today
TTITLE25=Till We Meet Again
EXTD=
EXTT0=
EXTT1=
EXTT2=
EXTT3=
EXTT4=
EXTT5=
EXTT6=
EXTT7=
EXTT8=
EXTT9=
EXTT10=
EXTT11=
EXTT12=
EXTT13=
EXTT14=
EXTT15=
EXTT16=
EXTT17=
EXTT18=
EXTT19=
EXTT20=
EXTT21=
EXTT22=
EXTT23=
EXTT24=
EXTT25=
PLAYORDER=
